<?xml version="1.0" encoding="iso-8859-1"?>
<!-- Generator: Adobe Illustrator 19.0.0, SVG Export Plug-In . SVG Version: 6.00 Build 0)  -->
<svg version="1.1" id="Capa_1" xmlns="http://www.w3.org/2000/svg" xmlns:xlink="http://www.w3.org/1999/xlink" x="0px" y="0px"
	 viewBox="0 0 512 512" style="enable-background:new 0 0 512 512;" xml:space="preserve">
<g>
	<g>
		<g>
			<path d="M352.98,407.888l0.02-0.443V262h45.002c11.046,0,20-8.954,20-20s-8.954-20-20-20h-284c-11.046,0-20,8.954-20,20
				s8.954,20,20,20H159v145l-0.005,0.764l0.069,0.829c0.698,9.15-0.286,35.631-13.046,48.107c-7.897,7.722-8.04,20.385-0.318,28.282
				c3.918,4.007,9.107,6.018,14.302,6.018c5.043,0,10.09-1.896,13.981-5.7c27.174-26.569,25.59-70.654,25.018-79.043V262h37v162
				c0,11.046,8.954,20,20,20c11.046,0,20-8.954,20-20V262h37v144.597c-0.278,7.482-0.951,55.229,25.582,79.234
				c3.828,3.463,8.627,5.169,13.412,5.169c5.455,0,10.889-2.219,14.837-6.582c7.411-8.19,6.778-20.838-1.412-28.249
				C354.945,446.693,352.517,419.519,352.98,407.888z"/>
			<circle cx="256" cy="493" r="19"/>
			<circle cx="99" cy="493" r="19"/>
			<circle cx="19" cy="410" r="19"/>
			<circle cx="38" cy="471" r="19"/>
			<path d="M492,232c-11.046,0-20,8.954-20,20c0,22.056-17.944,40-40,40h-19c-11.046,0-20,8.954-20,20c0,11.046,8.954,20,20,20h19
				c44.112,0,80-35.888,80-80C512,240.954,503.046,232,492,232z"/>
			<circle cx="413" cy="94" r="19"/>
			<path d="M432,0H80C35.888,0,0,35.888,0,80v172c0,44.112,35.888,80,80,80h19c11.046,0,20-8.954,20-20c0-11.046-8.954-20-20-20H80
				c-22.056,0-40-17.944-40-40v-70h452c11.046,0,20-8.954,20-20V80C512,35.888,476.112,0,432,0z M472,142H40V80
				c0-22.056,17.944-40,40-40h352c22.056,0,40,17.944,40,40V142z"/>
			<circle cx="413" cy="493" r="19"/>
			<circle cx="493" cy="410" r="19"/>
			<circle cx="474" cy="471" r="19"/>
		</g>
	</g>
</g>
<g>
</g>
<g>
</g>
<g>
</g>
<g>
</g>
<g>
</g>
<g>
</g>
<g>
</g>
<g>
</g>
<g>
</g>
<g>
</g>
<g>
</g>
<g>
</g>
<g>
</g>
<g>
</g>
<g>
</g>
</svg>
