<svg id="Capa_1" enable-background="new 0 0 512 512" height="512" viewBox="0 0 512 512" width="512" xmlns="http://www.w3.org/2000/svg"><g><path d="m408.101 240.11 58.474 26.079c4.219 1.881 9.068 1.715 13.147-.452s6.932-6.093 7.734-10.642l24.311-137.873c.802-4.549-.536-9.213-3.628-12.645-3.094-3.441-7.628-5.251-12.2-4.922l-63.867 4.507c.27-26.402-18.6-49.966-45.439-54.698l-275.746-48.623c-29.867-5.266-58.449 14.748-63.715 44.614l-20.838 118.177c-5.266 29.866 14.747 58.449 44.614 63.715l4.924.868-4.341 24.62c-3.351 19.006 9.385 37.195 28.391 40.546l24.625 4.342-5.801 32.896c-16.276 2.707-29.622 14.174-35.015 29.38h-53.731v-45c0-8.284-6.716-15-15-15s-15 6.716-15 15v120c0 8.284 6.716 15 15 15s15-6.716 15-15v-45h53.73c6.192 17.459 22.865 30 42.42 30 24.813 0 45-20.187 45-45 0-16.77-9.227-31.415-22.864-39.155l5.803-32.912 24.616 4.341c19.006 3.351 37.195-9.385 40.546-28.391l4.341-24.62 123.101 21.706c26.84 4.733 52.631-10.956 61.408-35.858zm19.376-105.551 51.411-3.627-17.638 100.033-47.07-20.992zm-50.976-56.42 4.922.868c13.576 2.394 22.673 15.386 20.279 28.961l-20.838 118.177c-2.394 13.576-15.386 22.673-28.961 20.279l-4.923-.868zm-250.351 311.861c-8.271 0-15-6.729-15-15s6.729-15 15-15 15 6.729 15 15-6.729 15-15 15zm63.557-116.327c-.479 2.715-3.077 4.535-5.792 4.056l-78.785-13.892c-2.715-.479-4.535-3.077-4.056-5.792l4.341-24.62 88.633 15.628zm-113.55-75.87c-13.576-2.394-22.673-15.385-20.279-28.961l20.838-118.178c2.394-13.576 15.386-22.673 28.961-20.279l241.28 42.544-29.521 167.417z"/><path d="m119.3 68.328c-8.158-1.438-15.938 4.009-17.377 12.167s4.009 15.938 12.167 17.377c8.158 1.438 15.938-4.009 17.377-12.167s-4.008-15.939-12.167-17.377z"/><path d="m178.389 78.747c-8.158-1.438-15.938 4.009-17.377 12.167s4.009 15.938 12.167 17.377 15.938-4.009 17.377-12.167c1.439-8.159-4.009-15.939-12.167-17.377z"/><path d="m507.607 433.757c-5.857-5.857-15.355-5.857-21.213 0-31.111 31.11-72.546 48.243-116.673 48.243s-85.562-17.133-116.673-48.243c-5.857-5.857-15.355-5.857-21.213 0s-5.858 15.355 0 21.213c36.776 36.776 85.745 57.03 137.886 57.03s101.109-20.254 137.886-57.03c5.857-5.858 5.857-15.356 0-21.213z"/><path d="m274.262 391.33c-5.858 5.857-5.858 15.355 0 21.213 26.318 26.318 60.889 39.478 95.459 39.478 34.571 0 69.142-13.159 95.459-39.478 5.858-5.857 5.858-15.355 0-21.213-5.857-5.857-15.355-5.857-21.213 0-40.938 40.939-107.552 40.94-148.493 0-5.857-5.857-15.355-5.857-21.212 0z"/><path d="m316.688 348.904c-5.857 5.857-5.857 15.355 0 21.213 14.621 14.621 33.827 21.932 53.033 21.932s38.412-7.311 53.033-21.932c5.858-5.857 5.858-15.355 0-21.213s-15.355-5.858-21.213 0c-17.546 17.545-46.094 17.545-63.64 0-5.857-5.857-15.355-5.857-21.213 0z"/><circle cx="369.721" cy="317.084" r="15"/></g></svg>