<svg height="512pt" viewBox="0 0 512 512" width="512pt" xmlns="http://www.w3.org/2000/svg"><path d="m370 182.125v-162.125c0-11.046875-8.953125-20-20-20h-33c-59.152344 0-108.617188 23.09375-143.046875 66.785156-20.714844 26.292969-35.1875 59.722656-42.488281 97.214844h-71.464844c-33.085938 0-60 26.914062-60 60s26.914062 60 60 60h5v208c0 11.046875 8.953125 20 20 20s20-8.953125 20-20v-208h27.269531c7.535157 35.871094 21.707031 67.859375 41.683594 93.214844 34.429687 43.691406 83.894531 66.785156 143.046875 66.785156h33c11.046875 0 20-8.953125 20-20v-51c0-11.046875-8.953125-20-20-20s-20 8.953125-20 20v31h-13c-111.453125 0-151-98.042969-151-182s39.546875-182 151-182h13v242c0 11.046875 8.953125 20 20 20s20-8.953125 20-20v-20.125c20.6875-1.535156 37-18.792969 37-39.875s-16.3125-38.339844-37-39.875zm-310 61.875c-11.027344 0-20-8.972656-20-20s8.972656-20 20-20h66.511719c-.335938 5.9375-.511719 11.9375-.511719 18 0 7.425781.257812 14.765625.757812 22zm452-25c0 11.046875-8.953125 20-20 20h-31c-11.046875 0-20-8.953125-20-20s8.953125-20 20-20h31c11.046875 0 20 8.953125 20 20zm-50.503906 110.664062c7.070312 8.484376 5.917968 21.097657-2.566406 28.164063-3.738282 3.117187-8.277344 4.636719-12.789063 4.636719-5.734375 0-11.421875-2.453125-15.378906-7.203125l-17.042969-20.460938c-7.070312-8.488281-5.921875-21.097656 2.5625-28.167969 8.488281-7.070312 21.101562-5.921874 28.167969 2.566407zm-44.863282-220.390624 17.320313-21c7.027344-8.519532 19.632813-9.734376 28.152344-2.703126 8.523437 7.027344 9.734375 19.632813 2.703125 28.15625l-17.320313 21c-3.953125 4.792969-9.671875 7.273438-15.4375 7.273438-4.480469 0-8.988281-1.496094-12.714843-4.570312-8.523438-7.027344-9.730469-19.632813-2.703126-28.15625zm0 0"/></svg>